<svg xmlns="http://www.w3.org/2000/svg" viewBox="0 0 512 512" width="512" height="512">
  <defs>
    <linearGradient id="bg-grad" x1="0%" y1="0%" x2="0%" y2="100%">
      <stop offset="0%" stop-color="#3b7d93"/>
      <stop offset="100%" stop-color="#214e7a"/>
    </linearGradient>

    <linearGradient id="paper-grad" x1="0%" y1="0%" x2="0%" y2="100%">
      <stop offset="0%" stop-color="#ffffff"/>
      <stop offset="100%" stop-color="#f4f5f7"/>
    </linearGradient>

    <filter id="drop-shadow" x="-10%" y="-10%" width="130%" height="130%">
      <feDropShadow dx="0" dy="12" stdDeviation="16" flood-color="#000000" flood-opacity="0.25"/>
    </filter>

    <filter id="fold-shadow" x="-20%" y="-20%" width="150%" height="150%">
      <feDropShadow dx="-2" dy="2" stdDeviation="4" flood-color="#000000" flood-opacity="0.15"/>
    </filter>
  </defs>

  <rect width="512" height="512" rx="115" ry="115" fill="url(#bg-grad)"/>

  <path d="M 156 96 
           H 316 
           L 376 156 
           V 386 
           A 30 30 0 0 1 346 416 
           H 166 
           A 30 30 0 0 1 136 386 
           V 126 
           A 30 30 0 0 1 156 96 Z" 
        fill="url(#paper-grad)" 
        filter="url(#drop-shadow)"/>

  <path d="M 316 96 
           V 126 
           A 30 30 0 0 0 346 156 
           H 376 
           Z" 
        fill="#ffffff" 
        filter="url(#fold-shadow)"/>

  <path d="M 175 290 
           V 210 
           H 200 
           L 220 245 
           L 240 210 
           H 265 
           V 290 
           H 240 
           V 240 
           L 220 270 
           L 200 240 
           V 290 
           Z" 
        fill="#334155"/>

  <path d="M 295 220 
           H 315 
           V 260 
           H 335 
           L 305 295 
           L 275 260 
           H 295 
           Z" 
        fill="#334155"/>
</svg>
